<?xml version="1.0" encoding="utf-8"?>
<!-- Generator: Adobe Illustrator 26.3.1, SVG Export Plug-In . SVG Version: 6.00 Build 0)  -->
<svg version="1.1" id="Layer_1" xmlns="http://www.w3.org/2000/svg" xmlns:xlink="http://www.w3.org/1999/xlink" x="0px" y="0px"
	 viewBox="0 0 300 300" style="enable-background:new 0 0 300 300;" xml:space="preserve">
<style type="text/css">
	.st0{fill:#0C98D6;}
	.st1{fill:#437B98;}
</style>
<g>
	<circle class="st0" cx="148.9" cy="155.56" r="22.3"/>
	<path class="st1" d="M169.24,7.97c39.69,0,75.58,16.29,101.35,42.54c-22.87-19.55-52.55-31.37-85-31.37
		c-68.95,0-125.45,53.33-130.49,120.99c-0.24,3.19-0.37,6.42-0.37,9.67c0,0.03,0,0.06,0,0.1s0,0.06,0,0.1
		c0,72.27,58.59,130.86,130.86,130.86c32.45,0,62.13-11.81,85-31.37c-25.77,26.25-61.66,42.54-101.35,42.54
		C90.8,292.03,27.21,228.44,27.21,150S90.8,7.97,169.24,7.97z"/>
	<path class="st0" d="M230.96,105.36c-15.84-10.07-38.68-14.41-48.87-15.93c-0.05,0-0.09,0-0.13,0c-1.57-0.17-3.3-0.39-5.12-0.69
		c0,0,0,0,0,0l0,0c-9.07-1.48-20.21-4.79-23.74-12.2c-0.32-0.82-0.61-1.65-0.86-2.5c-0.32-1.6-0.6-2.83-0.84-3.78
		c-0.27-1.76-0.39-3.57-0.33-5.41c0-0.01,0-0.01,0-0.02c0-0.01,0-0.01,0-0.02c0.02-0.74,0.07-1.47,0.15-2.19
		c1.6-15.32,14.78-27.04,30.43-26.57c7.36,0.22,14.02,3.1,19.07,7.69c-5.67-6.13-13.7-10.07-22.71-10.34
		c-10.12-0.3-19.29,4.1-25.42,11.23c-1.28,1.56-9.07,11.73-7.96,27.04c2.22,18.61,19.96,23.06,19.96,23.06h0
		c0.89,0.29,1.86,0.57,2.9,0.82l0,0c0,0,0.02,0,0.05,0.01c0.16,0.04,0.32,0.08,0.49,0.11c4.18,0.99,31.56,7.56,44.34,13.09
		c4.36,2.47,8.68,5.43,12.9,8.95c41.29,34.47,36.27,102.19-8.62,128.33c-3.54,2.06-6.89,3.86-10.05,5.39l0,0
		c0,0-40.64,17.18-42.05-11.96c0,0,0,0,0,0c0.31-2.93,1.02-6.07,2.12-9.34c8.26-24.72,74.7-64.21,74.7-64.21
		s-29.76,16.43-63.77,25.62c-9.66,2.34-23.68,4.47-34.86,1.04c-1.7-0.58-3.37-1.24-4.98-1.99c-0.06-0.03-0.12-0.05-0.17-0.08
		c-16.68-7.85-28.24-24.8-28.24-44.46c0-4.37,0.58-8.61,1.65-12.64l-0.61-0.15c-45.17,117.62,61.09,155.13,121.32,121.6
		C288.12,223.47,285.06,141.27,230.96,105.36z"/>
</g>
</svg>
