<?xml version="1.0" encoding="utf-8"?>
<!-- Generator: Adobe Illustrator 26.3.1, SVG Export Plug-In . SVG Version: 6.00 Build 0)  -->
<svg version="1.1" id="Layer_1" xmlns="http://www.w3.org/2000/svg" xmlns:xlink="http://www.w3.org/1999/xlink" x="0px" y="0px"
	 viewBox="0 0 500 400" style="enable-background:new 0 0 500 400;" xml:space="preserve">
<style type="text/css">
	.st0{fill:#F5EDF6;}
	.st1{fill:#C9D0EB;}
	.st2{fill:none;stroke:#C9D0EB;stroke-miterlimit:10;}
	.st3{fill:#D4D9EF;}
	.st4{fill:none;stroke:#FFFFFF;stroke-linecap:round;stroke-miterlimit:10;}
	.st5{fill:#154386;}
	.st6{fill:#F39976;}
	.st7{fill:none;stroke:#09416B;stroke-linecap:round;stroke-miterlimit:10;}
	.st8{fill:#F18960;}
	.st9{fill:none;stroke:#D06C43;stroke-linecap:round;stroke-miterlimit:10;}
	.st10{fill:none;stroke:#212046;stroke-linecap:round;stroke-miterlimit:10;}
	.st11{fill:none;stroke:#E67140;stroke-linecap:round;stroke-miterlimit:10;}
	.st12{fill:#E6E9F6;}
	.st13{fill:#15304D;}
	.st14{fill:none;}
	.st15{fill:#12395C;}
	.st16{fill:#2054A2;}
</style>
<g>
	<path class="st0" d="M420.06,127.98c40.47,88.35-4.22,169.11-76.02,207.2c-61.73,32.75-169.89,16.71-229.4-28.25
		c-60.55-45.75-67.86-94.49-30.52-146.17C136.17,88.72,121.44,44.2,199.26,11.18C241.78-6.86,289.86,5.8,316.31,36.7
		C350.55,76.7,400.02,84.22,420.06,127.98z"/>
	<g>
		<g>
			<path class="st1" d="M52.62,137.97c0,0-5.58,30.36,24.79,41.22C77.41,179.19,82.42,149.38,52.62,137.97z"/>
			<path class="st1" d="M47.51,187.69c0,0,12.81,28.08,43.93,19.6C91.43,207.29,78.47,179.98,47.51,187.69z"/>
			<path class="st1" d="M57.37,220.12c0,0,17.17,25.65,46.51,12.27C103.88,232.39,86.69,207.52,57.37,220.12z"/>
			<path class="st1" d="M100.99,160.28c0,0-24.39,18.91-8.99,47.25C92,207.53,115.61,188.64,100.99,160.28z"/>
			<path class="st1" d="M117.11,193.01c0,0-24.39,18.91-8.99,47.25C108.12,240.27,131.73,221.38,117.11,193.01z"/>
			<path class="st2" d="M65.34,157.52c0,0,46.5,82.35,68.96,146.19"/>
			<path class="st3" d="M134.78,105.77c0,0-26.26,143.96,31.18,189.91s59.76,8.83,59.76,8.83S221.65,149.67,134.78,105.77z"/>
			<path class="st4" d="M135.27,105.49c0,0,46.74,207,79.64,237.84"/>
			<path class="st1" d="M25.8,241.62c0,0,32,94.71,87.67,105.11c55.68,10.39,58.95-22.93,58.95-22.93S90.3,244.9,25.8,241.62z"/>
			<path class="st4" d="M23.34,238.5c0,0,110.55,105.1,144.08,114.13"/>
		</g>
		<g>
			<path class="st1" d="M449.84,137.97c0,0,5.58,30.36-24.79,41.22C425.05,179.19,420.04,149.38,449.84,137.97z"/>
			<path class="st1" d="M454.95,187.69c0,0-12.81,28.08-43.93,19.6C411.03,207.29,423.99,179.98,454.95,187.69z"/>
			<path class="st1" d="M445.09,220.12c0,0-17.17,25.65-46.51,12.27C398.58,232.39,415.77,207.52,445.09,220.12z"/>
			<path class="st1" d="M401.47,160.28c0,0,24.39,18.91,8.99,47.25C410.46,207.53,386.85,188.64,401.47,160.28z"/>
			<path class="st1" d="M385.35,193.01c0,0,24.39,18.91,8.99,47.25C394.34,240.27,370.73,221.38,385.35,193.01z"/>
			<path class="st2" d="M437.12,157.52c0,0-46.5,82.35-68.96,146.19"/>
			<path class="st3" d="M346.06,287.7c-57.44,45.96-81.56,9.77-81.56,9.77s26.62-95.62,77.44-152.03l12.69,15.92l-5.09-23.88
				c10.05-9.88,20.95-18.12,32.7-23.82C382.25,113.66,403.5,241.75,346.06,287.7z"/>
			<path class="st4" d="M382.2,113.79c0,0-61.75,198.7-94.65,229.54"/>
			<path class="st1" d="M476.66,241.62c0,0-32,94.71-87.67,105.11c-55.68,10.39-58.95-22.93-58.95-22.93S412.16,244.9,476.66,241.62
				z"/>
			<path class="st4" d="M475.98,241.59c0,0-107.42,102.01-140.95,111.03"/>
		</g>
	</g>
	<g>
		<path class="st5" d="M252.85,141.91v179.95l-61.2-17.54l2.87-9.25l1.3-54.74c-0.35,0.85-3.67,5.33-7.26,10.08
			c-6.22,8.19-14.85,14.23-24.69,17.25c-14.3,4.38-33.83,10.51-34.49,11.39l-17.19-30.31l45.13-20.19l20.46-42.38
			c4.03-8.72,10.15-16.18,17.7-21.81c4.72-3.51,9.97-6.3,15.65-8.24l15.83-5.4L252.85,141.91z"/>
		<g>
			<g>
				<path class="st6" d="M112.16,248.93l-16.88-13c-1.18-1.6-3.23-2.29-5.14-1.75l0,0c-2.67,0.76-4.12,3.63-3.16,6.24l8.45,9.66
					c0.76,2.07-1.17,3.17-3.06,4.07l-9.45,3.94c-0.9,0.38-1.81-0.53-1.44-1.43l3.59-8.81c0.27-0.95,0.38-1.94,0.24-2.92
					c-0.13-0.83-0.44-1.71-1.16-2.28l0,0c-2.69-2.15-6.66-1.52-8.54,1.38l-5.82,8.94c-3.46,5.33-2.34,12.41,2.6,16.4l10.59,8.55
					c6.64,5.36,15.79,6.4,23.46,2.66l14.07-6.7L112.16,248.93z"/>
				<path class="st6" d="M129.3,278.91l-38.85,13.64c-5.37,2.68-11.72,2.22-16.62-1.14c-0.28-0.18-0.54-0.38-0.81-0.59l-5.77-4.12
					c-2.91-2.26-2.71-6.73,0.41-8.72l44.52-29.06l16.54,28.94L129.3,278.91z"/>
			</g>
			<line class="st7" x1="91.91" y1="278.6" x2="68.86" y2="287.75"/>
			<line class="st7" x1="76.38" y1="272.15" x2="87.4" y2="267.13"/>
		</g>
		<path class="st8" d="M278.59,106.1c-1.99,6.13,0.82,12.53,6.27,14.29s11.48-1.77,13.47-7.89c1.99-6.13-0.82-12.53-6.27-14.29
			C286.6,96.44,280.57,99.98,278.59,106.1z"/>
		<path class="st8" d="M228.91,106.1c1.99,6.13-0.82,12.53-6.27,14.29c-5.45,1.77-11.48-1.77-13.47-7.89
			c-1.99-6.13,0.82-12.53,6.27-14.29C220.9,96.44,226.93,99.98,228.91,106.1z"/>
		<circle class="st9" cx="219.86" cy="109.62" r="4.82"/>
		<path class="st9" d="M292.36,109.62c0,2.66-2.16,4.82-4.82,4.82c-2.66,0-4.82-2.16-4.82-4.82c0-2.66,2.16-4.82,4.82-4.82
			C290.21,104.79,292.36,106.95,292.36,109.62z"/>
		<path class="st5" d="M393.23,248.75l-17.19,30.31c-0.66-0.89-20.19-7.01-34.49-11.39c-9.84-3.02-18.47-9.06-24.69-17.25
			c-3.45-4.54-6.62-8.83-7.2-9.95c0,0-0.01,0-0.01-0.01c-0.02-0.04-0.04-0.09-0.05-0.12l1.3,54.74l2.87,9.25l-61.19,17.54V141.91
			l41.71,14.22c5.47,1.87,10.57,4.53,15.16,7.86c7.78,5.68,14.07,13.27,18.19,22.18l20.46,42.38L393.23,248.75z"/>
		<path class="st6" d="M271.08,114.55v35.24c0,9.89-8.02,17.91-17.93,17.91c-9.89,0-17.91-8.02-17.91-17.91v-35.24H271.08z"/>
		<path class="st8" d="M271.08,114.55v32.9c-3.75,1.61-7.89,2.5-12.22,2.5h-10.64c-4.63,0-9.03-1.01-12.98-2.83v-32.56H271.08z"/>
		<path class="st6" d="M286.76,90.59v25.54c0,15.67-12.69,28.36-28.36,28.36h-9.7c-15.67,0-28.36-12.69-28.36-28.36V90.59
			c0-15.19,12.31-27.49,27.49-27.49h11.43c1.41,0,2.8,0.11,4.15,0.32C276.63,65.41,286.76,76.81,286.76,90.59z"/>
		<path class="st10" d="M242.74,99.23c0,3.28-2.66,5.94-5.94,5.94c-3.28,0-5.94-2.66-5.94-5.94"/>
		<path class="st10" d="M277.74,99.23c0,3.28-2.66,5.94-5.94,5.94c-3.28,0-5.94-2.66-5.94-5.94"/>
		<path class="st11" d="M259.49,119.46c0,3.28-2.66,5.94-5.94,5.94s-5.94-2.66-5.94-5.94"/>
		<path class="st8" d="M243.44,111.91c0,2.06-2.84,3.74-6.34,3.74s-6.34-1.67-6.34-3.74c0-2.06,2.84-3.74,6.34-3.74
			S243.44,109.84,243.44,111.91z"/>
		<path class="st8" d="M277.18,111.91c0,2.06-2.84,3.74-6.34,3.74s-6.34-1.67-6.34-3.74c0-2.06,2.84-3.74,6.34-3.74
			S277.18,109.84,277.18,111.91z"/>
		<ellipse class="st12" cx="255.45" cy="365.24" rx="188.47" ry="31.88"/>
		<path class="st8" d="M173.56,288.98l-13.91,55.83l-39.89-4.99c-16.32-2.05-27.51-17.46-24.4-33.61
			c2.6-13.53,14.44-23.06,27.9-23.06c1.14,0,2.29,0.06,3.45,0.2L173.56,288.98z"/>
		<path class="st8" d="M385.84,339.81l-36.24,4.53l-20.02-55.07l49.33-5.94c1.15-0.14,2.3-0.2,3.45-0.2
			c13.45,0,25.29,9.54,27.9,23.06C413.37,322.35,402.17,337.76,385.84,339.81z"/>
		<path class="st13" d="M349.6,344.35l-96.55,12.09l-0.25-6.02l-0.26,6.02l-92.91-11.63l13.91-55.83l66.38,8
			c8.55,1.03,17.2,1.03,25.74,0l63.9-7.7L349.6,344.35z"/>
		<path class="st13" d="M230.13,49.49h-5.66c-4.08,0-7.38,3.3-7.38,7.38v40.87l3.33,0.27c2.31-8.55,8.66-5.8,8.66-12.62
			L230.13,49.49z"/>
		<path class="st13" d="M276.79,49.49h5.66c4.08,0,7.38,3.3,7.38,7.38v40.92l-3.09,0.31c-0.42-9.77-8.78-7.81-8.78-14.64
			L276.79,49.49z"/>
		<path class="st13" d="M284.84,67.25c-34.1,17.73-62.73,0-62.73,0V50.59c0-0.21,0.01-0.43,0.03-0.64c0.32-3.61,3.35-6.42,7.03-6.42
			h48.6c3.9,0,7.06,3.16,7.06,7.06C284.84,50.59,289.93,64.6,284.84,67.25z"/>
		<g>
			<g>
				<path class="st6" d="M393.25,248.93l16.88-13c1.18-1.6,3.23-2.29,5.14-1.75l0,0c2.67,0.76,4.12,3.63,3.16,6.24l-8.45,9.66
					c-0.76,2.07,1.17,3.17,3.06,4.07l9.45,3.94c0.9,0.38,1.81-0.53,1.44-1.43l-3.59-8.81c-0.27-0.95-0.38-1.94-0.24-2.92
					c0.13-0.83,0.44-1.71,1.16-2.28l0,0c2.69-2.15,6.66-1.52,8.54,1.38l5.82,8.94c3.46,5.33,2.34,12.41-2.6,16.4l-10.59,8.55
					c-6.64,5.36-15.79,6.4-23.46,2.66l-14.07-6.7L393.25,248.93z"/>
				<path class="st6" d="M393.25,248.93l44.52,29.06c3.11,1.99,3.31,6.45,0.4,8.71l-5.77,4.12c-4.99,3.88-11.77,4.56-17.43,1.73
					l-38.86-13.64L393.25,248.93z"/>
			</g>
			<line class="st7" x1="413.5" y1="278.6" x2="436.55" y2="287.75"/>
			<line class="st7" x1="429.04" y1="272.15" x2="418.02" y2="267.13"/>
		</g>
		<line class="st14" x1="159.65" y1="344.8" x2="152.28" y2="374.38"/>
		<path class="st15" d="M329.58,289.28c0,0-40.74,14.1-74.39,14.98c-33.64,0.87-81.63-15.28-81.63-15.28l66.38,8
			c8.55,1.03,17.2,1.03,25.74,0L329.58,289.28z"/>
		<line class="st14" x1="358.02" y1="367.51" x2="349.6" y2="344.35"/>
		<g>
			<path class="st8" d="M310.19,341.71l-60.13,0.11l-9.47,39.3l28.5,5.25c20.28,3.74,40.33-7.59,47.6-26.89l2.05-5.45
				C320.98,348.06,316.57,341.69,310.19,341.71z"/>
			<path class="st6" d="M250.06,341.81l-0.43,1.76l-8.68,36.03l-0.36,1.51l-2.76-0.94l-58.44-19.73l-65.6-22.15
				c-15.59-5.26-23.47-22.61-17.2-37.81c4.51-10.91,15.07-17.6,26.3-17.6c2.99,0,6.01,0.47,8.98,1.46l102.86,50.01l14.37,6.98
				L250.06,341.81z"/>
			<path class="st6" d="M373.75,284.35l-118.19,57.46l9.47,39.3l126.8-42.81c15.58-5.26,23.47-22.61,17.19-37.81v0
				C403.32,286.69,387.92,279.64,373.75,284.35z"/>
			<path class="st8" d="M249.63,343.57l-8.68,36.03l-3.13,0.58l-58.44-19.73c-1.32-2.24-2.47-4.62-3.41-7.13l-2.21-5.85
				c-2.41-6.4,2.33-13.23,9.16-13.22l51.8,0.11l14.37,6.98L249.63,343.57z"/>
			<path class="st6" d="M195.42,341.71l60.13,0.11l9.47,39.3l-28.5,5.25c-20.28,3.74-40.33-7.59-47.6-26.89l-2.05-5.45
				C184.63,348.06,189.05,341.69,195.42,341.71z"/>
			<line class="st7" x1="188.49" y1="357.57" x2="207.77" y2="356.2"/>
			<line class="st7" x1="193.38" y1="368.23" x2="207.86" y2="366.34"/>
			<line class="st7" x1="201.05" y1="377.14" x2="211.85" y2="374.7"/>
		</g>
		<path class="st13" d="M393.23,248.75l-0.8,1.41l-16.39,28.9c-0.66-0.89-20.19-7.01-34.49-11.39c-9.84-3.02-18.47-9.06-24.69-17.25
			c-3.45-4.54-6.62-8.83-7.2-9.95c0,0-0.01,0-0.01-0.01c-0.02-0.09-0.03-0.18-0.05-0.27c-4.56-23.14-2.87-53.27-1.02-69.52
			c0.3-2.61,0.6-4.86,0.87-6.67c7.78,5.68,14.07,13.27,18.19,22.18l20.46,42.38L393.23,248.75z"/>
		<path class="st13" d="M195.92,240.18c-0.02,0.09-0.03,0.18-0.05,0.27c0,0.01-0.01,0.01-0.01,0.01c-0.58,1.12-3.76,5.41-7.2,9.95
			c-6.22,8.19-14.85,14.23-24.69,17.25c-14.3,4.38-33.83,10.51-34.49,11.39l-14.7-25.92l-2.49-4.38l45.13-20.19l20.46-42.38
			c4.12-8.91,10.41-16.5,18.19-22.18c0.34,2.23,0.73,5.13,1.08,8.55C198.91,189.15,200.31,217.91,195.92,240.18z"/>
		<path class="st15" d="M197.15,172.54c-17.75,17.87-32.11,61.62-32.11,61.62l-50.26,18.98l-2.49-4.38l45.13-20.19l20.46-42.38
			c4.12-8.91,10.41-16.5,18.19-22.18C196.41,166.22,196.8,169.12,197.15,172.54z"/>
		<path class="st15" d="M393.23,248.75l-0.8,1.41l-2.06,3.35l-46.9-19.84c0,0-12.93-27.65-21.94-45.08
			c-4.49-8.68-9.28-14.39-12.95-17.92c0.3-2.61,0.6-4.86,0.87-6.67c7.78,5.68,14.07,13.27,18.19,22.18l20.46,42.38L393.23,248.75z"
			/>
		<path class="st16" d="M227.04,151.09c0.71,6.2-29.89,21.44-29.89,21.44s-0.99-4.02-1.67-8.17c4.72-3.51,9.97-6.3,15.65-8.24
			l15.83-5.4C227,150.85,227.03,150.97,227.04,151.09z"/>
		<path class="st8" d="M129.3,278.91l-38.85,13.64c-5.37,2.68-11.72,2.22-16.62-1.14l50.47-20.3l4.41,6.76L129.3,278.91z"/>
		<path class="st8" d="M376.08,278.91l38.85,13.64c5.37,2.68,11.72,2.22,16.62-1.14l-50.47-20.3l-4.41,6.76L376.08,278.91z"/>
		<line class="st10" x1="241.63" y1="88.95" x2="231.95" y2="88.95"/>
		<line class="st10" x1="276.38" y1="88.95" x2="266.7" y2="88.95"/>
		<path class="st15" d="M272.7,43.53c-0.98,3.7-4.35,6.42-8.35,6.42h-42.2c0.32-3.61,3.35-6.42,7.03-6.42H272.7z"/>
	</g>
	<g>
		<g>
			<path class="st10" d="M327.63,20.47c-1.59,1.75-3,3.17-4.76,4.76c-1.75-1.59-3.17-3-4.76-4.76c1.59-1.75,3-3.17,4.76-4.76
				C324.63,17.3,326.05,18.72,327.63,20.47z"/>
		</g>
		<g>
			<path class="st10" d="M174.22,82.59c-1.59,1.75-3,3.17-4.76,4.76c-1.75-1.59-3.17-3-4.76-4.76c1.59-1.75,3-3.17,4.76-4.76
				C171.22,79.42,172.64,80.84,174.22,82.59z"/>
		</g>
		<path class="st10" d="M330.63,80.67c0,2.08-1.69,3.77-3.77,3.77s-3.77-1.69-3.77-3.77c0-2.08,1.69-3.77,3.77-3.77
			S330.63,78.58,330.63,80.67z"/>
	</g>
</g>
</svg>
