<?xml version="1.0" encoding="utf-8"?>
<!-- Generator: Adobe Illustrator 26.3.1, SVG Export Plug-In . SVG Version: 6.00 Build 0)  -->
<svg version="1.1" id="Layer_1" xmlns="http://www.w3.org/2000/svg" xmlns:xlink="http://www.w3.org/1999/xlink" x="0px" y="0px"
	 viewBox="0 0 500 400" style="enable-background:new 0 0 500 400;" xml:space="preserve">
<style type="text/css">
	.st0{fill:#F5EDF6;}
	.st1{fill:#D4D9EF;}
	.st2{fill:#A8B4DD;}
	.st3{fill:none;stroke:#09416B;stroke-linecap:round;stroke-miterlimit:10;}
	.st4{fill:#E6E9F6;}
	.st5{fill:#F18960;}
	.st6{fill:none;stroke:#D06C43;stroke-linecap:round;stroke-miterlimit:10;}
	.st7{fill:#15304D;}
	.st8{fill:#F39976;}
	.st9{fill:none;stroke:#15304D;stroke-width:2;stroke-linecap:round;stroke-miterlimit:10;}
	.st10{fill:none;stroke:#E67140;stroke-width:2;stroke-linecap:round;stroke-miterlimit:10;}
	.st11{fill:#871E81;}
	.st12{fill:#912E88;}
	.st13{fill:none;stroke:#212046;stroke-linecap:round;stroke-miterlimit:10;}
</style>
<g>
	
		<ellipse transform="matrix(0.7071 -0.7071 0.7071 0.7071 -72.244 236.7905)" class="st0" cx="249.71" cy="205.6" rx="169.15" ry="169.15"/>
	<g>
		<g>
			<path class="st1" d="M211.38,282.8c0,0-3.88,8.46-13.05,12.28c-7.18,3-17.61,3.18-31.96-5.75c-1.64-1.02-3.37-2.31-5.21-3.84
				c-8.18-6.84-18.23-18.55-28.83-32.48c-12.65-16.6-26.09-36.36-38.05-54.78l15.2-23.38l-24.89,8.3c-1.49-2.34-2.94-4.64-4.34-6.87
				c-5.11-8.14-7.57-17.25-7.57-26.26c0-14.82,6.66-29.41,19.15-39.09c22.95-17.78,56.27-12.08,71.89,12.39
				C202.96,184.88,211.38,281.07,211.38,282.8z"/>
			<path class="st2" d="M175.15,304.32c-0.67-1.19-43.61-64.21-94.42-91.46c-20.21-10.84-45.36-1.89-54.31,19.22v0
				c-7.83,18.48-0.36,39.88,17.26,49.49c33.03,18.02,83.33,43.73,102.98,44.63C177.02,327.59,175.15,304.32,175.15,304.32z"/>
			<path class="st3" d="M116.49,142.93c0,0,77.6,143.53,90.65,168.94"/>
			<line class="st3" x1="48.18" y1="239.93" x2="137.09" y2="294.89"/>
		</g>
		<g>
			<path class="st2" d="M428.21,150.45c-0.09,9.01-2.63,18.1-7.82,26.18c-15.12,23.59-35.25,53.76-53.6,77.25
				c-10.19,13.04-19.82,24.03-27.74,30.68c-2.08,1.74-4.04,3.2-5.86,4.31c-14.43,8.79-24.85,8.52-32.01,5.45
				c-9.14-3.92-12.94-12.41-12.94-12.41c0.02-1.73,9.35-97.84,49.2-159.02c15.84-24.32,49.21-29.7,71.99-11.7
				c6.29,4.98,11.08,11.2,14.23,18.08l-19.5,17.05l23.82-1.09C428.14,146.95,428.22,148.69,428.21,150.45z"/>
			<path class="st1" d="M324.31,303.94c0.68-1.18,44.23-63.79,95.29-90.55c20.31-10.64,45.38-1.46,54.12,19.74v0
				c7.65,18.56-0.02,39.88-17.73,49.33c-33.2,17.71-83.75,42.93-103.41,43.64C322.21,327.19,324.31,303.94,324.31,303.94z"/>
			<path class="st3" d="M384.46,142.94c0,0-78.97,142.78-92.27,168.07"/>
			<line class="st3" x1="451.89" y1="240.77" x2="362.46" y2="294.87"/>
		</g>
		<ellipse class="st4" cx="253.62" cy="360.09" rx="188.88" ry="31.95"/>
		<g>
			<path class="st5" d="M279.21,95.27c-2.18,6.73,0.9,13.77,6.89,15.71c5.99,1.94,12.62-1.94,14.8-8.67
				c2.18-6.73-0.9-13.77-6.89-15.71C288.02,84.65,281.4,88.54,279.21,95.27z"/>
			<path class="st5" d="M224.62,95.27c2.18,6.73-0.9,13.77-6.89,15.71c-5.99,1.94-12.62-1.94-14.8-8.67
				c-2.18-6.73,0.9-13.77,6.89-15.71C215.81,84.65,222.44,88.54,224.62,95.27z"/>
			<path class="st6" d="M219.96,99.13c0,2.93-2.37,5.3-5.3,5.3s-5.3-2.37-5.3-5.3c0-2.93,2.37-5.3,5.3-5.3S219.96,96.2,219.96,99.13
				z"/>
			<path class="st6" d="M294.36,99.13c0,2.93-2.37,5.3-5.3,5.3s-5.3-2.37-5.3-5.3c0-2.93,2.37-5.3,5.3-5.3S294.36,96.2,294.36,99.13
				z"/>
			<path class="st7" d="M175.74,180.62l-17.15,37.1l-51.48,25.18l17.35,30.21c1.47-1.96,63.62-25.74,76.99-31.25l3.2,23.86
				l-16.19,31.45l62.52,19.44V136.26l-41.81,14.25C194.38,155.55,182.3,166.43,175.74,180.62z"/>
			<path class="st7" d="M325.97,180.62l17.15,37.1l51.48,25.18l-17.35,30.21c-1.47-1.96-62.3-27.52-75.66-33.04l-4.16,24.4
				l14.63,34.56l-61.33,17.57V136.26l41.81,14.25C307.34,155.55,319.42,166.43,325.97,180.62z"/>
			<path class="st8" d="M269.28,108.84v35.32c0,9.92-8.04,17.95-17.97,17.95c-9.92,0-17.95-8.04-17.95-17.95v-35.32H269.28z"/>
			<path class="st5" d="M269.28,108.84v32.97c-3.75,1.61-7.91,2.5-12.25,2.5h-10.66c-4.64,0-9.05-1.01-13.01-2.84v-32.64H269.28z"/>
			
				<ellipse transform="matrix(0.7071 -0.7071 0.7071 0.7071 48.6243 190.1225)" class="st7" cx="253.81" cy="36.37" rx="28.4" ry="28.4"/>
			<path class="st8" d="M288.2,78.22v28.07c0,17.22-13.95,31.17-31.17,31.17h-10.66c-17.22,0-31.17-13.95-31.17-31.17V78.22
				c0-16.69,13.53-30.22,30.22-30.22h12.56c1.55,0,3.08,0.12,4.56,0.35C277.07,50.54,288.2,63.08,288.2,78.22z"/>
			<path class="st7" d="M262.38,46.31c-1.5-0.23-3.06-0.35-4.63-0.35h-5.33h-7.43c-16.95,0-29.94,12.89-29.94,29.84l0.13,10.51
				c-0.04-0.09,0.01,0.11,0.04,0.09c17.84-11.37,38.12-2.75,40.93-19.75c5.89,11.58,21.18,8.87,31.81,19.5
				c0.11,0.11,0.32,0,0.48-0.01v-9.48C288.45,61.28,277.14,48.54,262.38,46.31z"/>
			<path class="st9" d="M240.88,93.49c0,3.29-2.66,5.95-5.95,5.95c-3.29,0-5.95-2.66-5.95-5.95"/>
			<path class="st9" d="M275.96,93.49c0,3.29-2.66,5.95-5.95,5.95s-5.95-2.66-5.95-5.95"/>
			<path class="st10" d="M257.67,113.76c0,3.29-2.66,5.95-5.95,5.95c-3.29,0-5.95-2.66-5.95-5.95"/>
			<circle class="st5" cx="234.73" cy="108.8" r="6.35"/>
			<circle class="st5" cx="268.54" cy="108.8" r="6.35"/>
			<g>
				<path class="st8" d="M111.08,241.31l-8.02-11.06c-1.26-1.7-3.43-2.44-5.46-1.86l0,0c-2.84,0.81-4.38,3.86-3.36,6.63l4.69,12.69
					c0.81,2.2-0.92,4.49-3.25,4.32l-0.73-0.05c-2.76-0.21-4.93-2.45-5.03-5.22l-0.04-1.15c-0.09-2.27-1.15-4.39-2.93-5.81l0,0
					c-2.86-2.29-7.07-1.61-9.07,1.46l-6.18,9.5c-3.68,5.66-2.49,13.18,2.77,17.43l11.25,9.09c7.06,5.7,16.77,6.8,24.93,2.83
					l14.35-6.99L111.08,241.31z"/>
				<path class="st5" d="M98.93,247.71l5.44,11.8c1.47,3.18-0.14,6.94-3.46,8.07l-1.24,0.42c-4.41,1.5-9.02-1.67-9.19-6.32
					l-0.6-16.06L98.93,247.71z"/>
				<path class="st8" d="M89.38,243.38c0,0.39,4.71,8.43,8.37,14.62c2.06,3.48,0.06,7.95-3.9,8.74l-3.68,0.74L89.38,243.38z"/>
			</g>
			<g>
				<path class="st8" d="M390.88,241.31l8.02-11.06c1.26-1.7,3.43-2.44,5.46-1.86l0,0c2.84,0.81,4.38,3.86,3.36,6.63l-4.69,12.69
					c-0.81,2.2,0.92,4.49,3.25,4.32l0.73-0.05c2.76-0.21,4.93-2.45,5.03-5.22l0.04-1.15c0.09-2.27,1.15-4.39,2.93-5.81l0,0
					c2.86-2.29,7.07-1.61,9.07,1.46l6.18,9.5c3.68,5.66,2.49,13.18-2.77,17.43l-11.25,9.09c-7.06,5.7-16.77,6.8-24.93,2.83
					l-14.35-6.99L390.88,241.31z"/>
				<path class="st5" d="M403.03,247.71l-5.44,11.8c-1.47,3.18,0.14,6.94,3.46,8.07l1.24,0.42c4.41,1.5,9.02-1.67,9.19-6.32
					l0.6-16.06L403.03,247.71z"/>
				<path class="st8" d="M412.58,243.38c0,0.39-4.71,8.43-8.37,14.62c-2.06,3.48-0.06,7.95,3.9,8.74l3.68,0.74L412.58,243.38z"/>
			</g>
			<polygon class="st11" points="204.65,265.71 297.43,264.47 311.63,293.82 232,302.67 190.07,291.13 			"/>
			<g>
				<path class="st12" d="M124.59,278l128.54,15.49l-2.41,57.77l-133.08-16.66c-16.36-2.05-27.57-17.5-24.45-33.69v0
					C96.02,286.21,109.73,276.2,124.59,278z"/>
				<path class="st8" d="M248.22,336.6l-0.43,1.76l-8.7,36.1l-0.36,1.52l-2.77-0.94l-58.57-19.77l-65.74-22.2
					c-15.62-5.27-23.52-22.66-17.23-37.89c4.52-10.94,15.11-17.64,26.35-17.64c2.99,0,6.02,0.47,9,1.46l103.09,50.12l14.4,6.99
					L248.22,336.6z"/>
				<path class="st5" d="M308.48,336.5l-60.27,0.11l-9.5,39.39l28.56,5.26c20.33,3.74,40.42-7.61,47.7-26.95l2.06-5.46
					C319.29,342.86,314.87,336.48,308.48,336.5z"/>
				<path class="st12" d="M377.35,278l-128.54,15.49l2.41,57.77l133.08-16.66c16.36-2.05,27.57-17.5,24.45-33.69v0
					C405.93,286.21,392.21,276.2,377.35,278z"/>
				<path class="st8" d="M372.18,279.02l-118.45,57.59l9.5,39.39l127.07-42.91c15.62-5.27,23.52-22.66,17.23-37.89v0
					C401.82,281.36,386.38,274.29,372.18,279.02z"/>
				<path class="st5" d="M247.79,338.37l-8.7,36.1l-3.13,0.58l-58.57-19.77c-1.33-2.25-2.48-4.63-3.42-7.14l-2.21-5.86
					c-2.42-6.41,2.33-13.26,9.18-13.25l51.92,0.11l14.4,6.99L247.79,338.37z"/>
				<path class="st8" d="M193.46,336.5l60.27,0.11l9.5,39.39l-28.56,5.26c-20.33,3.74-40.42-7.61-47.7-26.95l-2.06-5.46
					C182.65,342.86,187.07,336.48,193.46,336.5z"/>
			</g>
			<path class="st3" d="M228.78,37.39c-0.05-8.93,4.84-17.56,13.36-21.86c11.98-6.05,26.6-1.23,32.65,10.75
				c0.71,1.41,1.27,2.85,1.69,4.32"/>
			<path class="st3" d="M235.09,36.56c0-9.44,7.65-17.08,17.08-17.08c4.61,0,8.79,1.83,11.87,4.79"/>
			<path class="st3" d="M219.3,77.42c0,0,5.76-2.88,19.55-5.16c13.79-2.28,10.82-14.19,10.82-14.19"/>
			<path class="st3" d="M235.58,67.15c0,0,8.9-2.5,6.95-9.88"/>
			<path class="st3" d="M220.65,66.58c0,0,7.99-21.93,43.46-16.18"/>
			<path class="st3" d="M261.95,61.08c0,0,0.46,8.36,12.16,11.55"/>
			<path class="st3" d="M203.89,188.41L201.52,205l-2.9,4.64c-5.63,9.27-3.64,19.52-0.78,25.15l3.6,7.07"/>
			<path class="st3" d="M298.5,188.41l2.37,16.59l2.9,4.64c5.63,9.27,3.64,19.52,0.78,25.15l-3.6,7.07"/>
			<line class="st3" x1="186.51" y1="352.39" x2="205.83" y2="351.03"/>
			<line class="st3" x1="191.42" y1="363.07" x2="205.93" y2="361.18"/>
			<line class="st3" x1="199.1" y1="372" x2="209.92" y2="369.56"/>
			<line class="st3" x1="89.92" y1="244.43" x2="82" y2="255.64"/>
			<line class="st3" x1="412.19" y1="244.5" x2="420.15" y2="255.08"/>
			<line class="st3" x1="95.38" y1="254.43" x2="89.04" y2="263"/>
			<line class="st3" x1="407.11" y1="253.05" x2="413.85" y2="261.48"/>
		</g>
		<g>
			<line class="st13" x1="335.26" y1="55.5" x2="335.26" y2="73.61"/>
			<line class="st13" x1="344.19" y1="64.56" x2="326.08" y2="64.56"/>
			<path class="st13" d="M323.05,17.52c0,2.19-1.78,3.97-3.97,3.97c-2.19,0-3.97-1.78-3.97-3.97c0-2.19,1.78-3.97,3.97-3.97
				C321.27,13.55,323.05,15.33,323.05,17.52z"/>
			<path class="st13" d="M177.42,86.36c0,2.19-1.78,3.97-3.97,3.97c-2.19,0-3.97-1.78-3.97-3.97c0-2.19,1.78-3.97,3.97-3.97
				C175.64,82.39,177.42,84.17,177.42,86.36z"/>
		</g>
	</g>
</g>
</svg>
